<?xml version="1.0" encoding="UTF-8" standalone="no"?><svg xmlns="http://www.w3.org/2000/svg" xmlns:xlink="http://www.w3.org/1999/xlink" contentScriptType="application/ecmascript" contentStyleType="text/css" height="339px" preserveAspectRatio="none" style="width:461px;height:339px;" version="1.1" viewBox="0 0 461 339" width="461px" zoomAndPan="magnify"><defs><filter height="300%" id="fwtf81l5x3tpp" width="300%" x="-1" y="-1"><feGaussianBlur result="blurOut" stdDeviation="2.0"/><feColorMatrix in="blurOut" result="blurOut2" type="matrix" values="0 0 0 0 0 0 0 0 0 0 0 0 0 0 0 0 0 0 .4 0"/><feOffset dx="4.0" dy="4.0" in="blurOut2" result="blurOut3"/><feBlend in="SourceGraphic" in2="blurOut3" mode="normal"/></filter></defs><g><line style="stroke: #A80036; stroke-width: 1.0; stroke-dasharray: 5.0,5.0;" x1="37" x2="37" y1="86.2969" y2="251.9609"/><line style="stroke: #A80036; stroke-width: 1.0; stroke-dasharray: 5.0,5.0;" x1="101" x2="101" y1="86.2969" y2="251.9609"/><line style="stroke: #A80036; stroke-width: 1.0; stroke-dasharray: 5.0,5.0;" x1="156" x2="156" y1="86.2969" y2="251.9609"/><line style="stroke: #A80036; stroke-width: 1.0; stroke-dasharray: 5.0,5.0;" x1="207" x2="207" y1="86.2969" y2="251.9609"/><line style="stroke: #A80036; stroke-width: 1.0; stroke-dasharray: 5.0,5.0;" x1="258" x2="258" y1="86.2969" y2="251.9609"/><line style="stroke: #A80036; stroke-width: 1.0; stroke-dasharray: 5.0,5.0;" x1="317" x2="317" y1="86.2969" y2="251.9609"/><line style="stroke: #A80036; stroke-width: 1.0; stroke-dasharray: 5.0,5.0;" x1="427" x2="427" y1="86.2969" y2="251.9609"/><text fill="#000000" font-family="sans-serif" font-size="14" lengthAdjust="spacingAndGlyphs" textLength="53" x="8" y="82.9951">Foo123</text><ellipse cx="37.5" cy="13" fill="#FEFECE" filter="url(#fwtf81l5x3tpp)" rx="8" ry="8" style="stroke: #A80036; stroke-width: 2.0;"/><path d="M37.5,21 L37.5,48 M24.5,29 L50.5,29 M37.5,48 L24.5,63 M37.5,48 L50.5,63 " fill="none" filter="url(#fwtf81l5x3tpp)" style="stroke: #A80036; stroke-width: 2.0;"/><text fill="#000000" font-family="sans-serif" font-size="14" lengthAdjust="spacingAndGlyphs" textLength="53" x="8" y="263.9561">Foo123</text><ellipse cx="37.5" cy="277.2578" fill="#FEFECE" filter="url(#fwtf81l5x3tpp)" rx="8" ry="8" style="stroke: #A80036; stroke-width: 2.0;"/><path d="M37.5,285.2578 L37.5,312.2578 M24.5,293.2578 L50.5,293.2578 M37.5,312.2578 L24.5,327.2578 M37.5,312.2578 L50.5,327.2578 " fill="none" filter="url(#fwtf81l5x3tpp)" style="stroke: #A80036; stroke-width: 2.0;"/><text fill="#000000" font-family="sans-serif" font-size="14" lengthAdjust="spacingAndGlyphs" textLength="35" x="81" y="82.9951">Foo2</text><path d="M81,42 L81,66 M81,54 L98,54 " fill="none" filter="url(#fwtf81l5x3tpp)" style="stroke: #A80036; stroke-width: 2.0;"/><ellipse cx="110" cy="54" fill="#FEFECE" filter="url(#fwtf81l5x3tpp)" rx="12" ry="12" style="stroke: #A80036; stroke-width: 2.0;"/><text fill="#000000" font-family="sans-serif" font-size="14" lengthAdjust="spacingAndGlyphs" textLength="35" x="81" y="263.9561">Foo2</text><path d="M81,271.2578 L81,295.2578 M81,283.2578 L98,283.2578 " fill="none" filter="url(#fwtf81l5x3tpp)" style="stroke: #A80036; stroke-width: 2.0;"/><ellipse cx="110" cy="283.2578" fill="#FEFECE" filter="url(#fwtf81l5x3tpp)" rx="12" ry="12" style="stroke: #A80036; stroke-width: 2.0;"/><text fill="#000000" font-family="sans-serif" font-size="14" lengthAdjust="spacingAndGlyphs" textLength="35" x="136" y="82.9951">Foo3</text><ellipse cx="156.5" cy="54" fill="#FEFECE" filter="url(#fwtf81l5x3tpp)" rx="12" ry="12" style="stroke: #A80036; stroke-width: 2.0;"/><polygon fill="#A80036" points="152.5,42,158.5,37,156.5,42,158.5,47,152.5,42" style="stroke: #A80036; stroke-width: 1.0;"/><text fill="#000000" font-family="sans-serif" font-size="14" lengthAdjust="spacingAndGlyphs" textLength="35" x="136" y="263.9561">Foo3</text><ellipse cx="156.5" cy="283.2578" fill="#FEFECE" filter="url(#fwtf81l5x3tpp)" rx="12" ry="12" style="stroke: #A80036; stroke-width: 2.0;"/><polygon fill="#A80036" points="152.5,271.2578,158.5,266.2578,156.5,271.2578,158.5,276.2578,152.5,271.2578" style="stroke: #A80036; stroke-width: 1.0;"/><text fill="#000000" font-family="sans-serif" font-size="14" lengthAdjust="spacingAndGlyphs" textLength="35" x="187" y="82.9951">Foo4</text><ellipse cx="207.5" cy="54" fill="#FEFECE" filter="url(#fwtf81l5x3tpp)" rx="12" ry="12" style="stroke: #A80036; stroke-width: 2.0;"/><line style="stroke: #A80036; stroke-width: 2.0;" x1="195.5" x2="219.5" y1="68" y2="68"/><text fill="#000000" font-family="sans-serif" font-size="14" lengthAdjust="spacingAndGlyphs" textLength="35" x="187" y="263.9561">Foo4</text><ellipse cx="207.5" cy="283.2578" fill="#FEFECE" filter="url(#fwtf81l5x3tpp)" rx="12" ry="12" style="stroke: #A80036; stroke-width: 2.0;"/><line style="stroke: #A80036; stroke-width: 2.0;" x1="195.5" x2="219.5" y1="297.2578" y2="297.2578"/><text fill="#000000" font-family="sans-serif" font-size="14" lengthAdjust="spacingAndGlyphs" textLength="35" x="238" y="82.9951">Foo5</text><path d="M240.5,34 C240.5,24 258.5,24 258.5,24 C258.5,24 276.5,24 276.5,34 L276.5,60 C276.5,70 258.5,70 258.5,70 C258.5,70 240.5,70 240.5,60 L240.5,34 " fill="#FEFECE" filter="url(#fwtf81l5x3tpp)" style="stroke: #000000; stroke-width: 1.5;"/><path d="M240.5,34 C240.5,44 258.5,44 258.5,44 C258.5,44 276.5,44 276.5,34 " fill="none" style="stroke: #000000; stroke-width: 1.5;"/><text fill="#000000" font-family="sans-serif" font-size="14" lengthAdjust="spacingAndGlyphs" textLength="35" x="238" y="263.9561">Foo5</text><path d="M240.5,277.2578 C240.5,267.2578 258.5,267.2578 258.5,267.2578 C258.5,267.2578 276.5,267.2578 276.5,277.2578 L276.5,303.2578 C276.5,313.2578 258.5,313.2578 258.5,313.2578 C258.5,313.2578 240.5,313.2578 240.5,303.2578 L240.5,277.2578 " fill="#FEFECE" filter="url(#fwtf81l5x3tpp)" style="stroke: #000000; stroke-width: 1.5;"/><path d="M240.5,277.2578 C240.5,287.2578 258.5,287.2578 258.5,287.2578 C258.5,287.2578 276.5,287.2578 276.5,277.2578 " fill="none" style="stroke: #000000; stroke-width: 1.5;"/><rect fill="#FEFECE" filter="url(#fwtf81l5x3tpp)" height="30.2969" style="stroke: #A80036; stroke-width: 1.5;" width="49" x="293" y="47"/><rect fill="#FEFECE" filter="url(#fwtf81l5x3tpp)" height="30.2969" style="stroke: #A80036; stroke-width: 1.5;" width="49" x="289" y="51"/><text fill="#000000" font-family="sans-serif" font-size="14" lengthAdjust="spacingAndGlyphs" textLength="35" x="296" y="70.9951">Foo6</text><rect fill="#FEFECE" filter="url(#fwtf81l5x3tpp)" height="30.2969" style="stroke: #A80036; stroke-width: 1.5;" width="49" x="293" y="250.9609"/><rect fill="#FEFECE" filter="url(#fwtf81l5x3tpp)" height="30.2969" style="stroke: #A80036; stroke-width: 1.5;" width="49" x="289" y="254.9609"/><text fill="#000000" font-family="sans-serif" font-size="14" lengthAdjust="spacingAndGlyphs" textLength="35" x="296" y="274.9561">Foo6</text><rect fill="#FEFECE" filter="url(#fwtf81l5x3tpp)" height="30.2969" style="stroke: #A80036; stroke-width: 1.5;" width="49" x="401" y="51"/><text fill="#000000" font-family="sans-serif" font-size="14" lengthAdjust="spacingAndGlyphs" textLength="35" x="408" y="70.9951">Foo1</text><rect fill="#FEFECE" filter="url(#fwtf81l5x3tpp)" height="30.2969" style="stroke: #A80036; stroke-width: 1.5;" width="49" x="401" y="250.9609"/><text fill="#000000" font-family="sans-serif" font-size="14" lengthAdjust="spacingAndGlyphs" textLength="35" x="408" y="270.9561">Foo1</text><polygon fill="#A80036" points="112.5,113.4297,102.5,117.4297,112.5,121.4297,108.5,117.4297" style="stroke: #A80036; stroke-width: 1.0;"/><line style="stroke: #A80036; stroke-width: 1.0;" x1="106.5" x2="426.5" y1="117.4297" y2="117.4297"/><text fill="#000000" font-family="sans-serif" font-size="13" lengthAdjust="spacingAndGlyphs" textLength="79" x="118.5" y="112.3638">To boundary</text><polygon fill="#A80036" points="167.5,142.5625,157.5,146.5625,167.5,150.5625,163.5,146.5625" style="stroke: #A80036; stroke-width: 1.0;"/><line style="stroke: #A80036; stroke-width: 1.0;" x1="161.5" x2="426.5" y1="146.5625" y2="146.5625"/><text fill="#000000" font-family="sans-serif" font-size="13" lengthAdjust="spacingAndGlyphs" textLength="63" x="173.5" y="141.4966">To control</text><polygon fill="#A80036" points="218.5,171.6953,208.5,175.6953,218.5,179.6953,214.5,175.6953" style="stroke: #A80036; stroke-width: 1.0;"/><line style="stroke: #A80036; stroke-width: 1.0;" x1="212.5" x2="426.5" y1="175.6953" y2="175.6953"/><text fill="#000000" font-family="sans-serif" font-size="13" lengthAdjust="spacingAndGlyphs" textLength="55" x="224.5" y="170.6294">To entity</text><polygon fill="#A80036" points="269.5,200.8281,259.5,204.8281,269.5,208.8281,265.5,204.8281" style="stroke: #A80036; stroke-width: 1.0;"/><line style="stroke: #A80036; stroke-width: 1.0;" x1="263.5" x2="426.5" y1="204.8281" y2="204.8281"/><text fill="#000000" font-family="sans-serif" font-size="13" lengthAdjust="spacingAndGlyphs" textLength="79" x="275.5" y="199.7622">To database</text><polygon fill="#A80036" points="328.5,229.9609,318.5,233.9609,328.5,237.9609,324.5,233.9609" style="stroke: #A80036; stroke-width: 1.0;"/><line style="stroke: #A80036; stroke-width: 1.0;" x1="322.5" x2="426.5" y1="233.9609" y2="233.9609"/><text fill="#000000" font-family="sans-serif" font-size="13" lengthAdjust="spacingAndGlyphs" textLength="86" x="334.5" y="228.895">To collections</text><!--MD5=[9561f6ed50762d75c03406ea548bf532]
@startuml
actor Foo123
boundary Foo2
control Foo3
entity Foo4
database Foo5
collections Foo6
Foo1 -> Foo2 : To boundary
Foo1 -> Foo3 : To control
Foo1 -> Foo4 : To entity
Foo1 -> Foo5 : To database
Foo1 -> Foo6 : To collections
@enduml

PlantUML version 1.2020.02(Sun Mar 01 10:22:07 GMT 2020)
(GPL source distribution)
Java Runtime: OpenJDK Runtime Environment
JVM: OpenJDK 64-Bit Server VM
Java Version: 11.0.9+11-Ubuntu-0ubuntu1
Operating System: Linux
Default Encoding: ANSI_X3.4-1968
Language: en
Country: US
--></g></svg>